<svg width="70" height="70" viewBox="0 0 70 70" fill="none" xmlns="http://www.w3.org/2000/svg">
<g clip-path="url(#clip0_3031_2182)">
<path opacity="0.15" d="M35 70C54.33 70 70 54.33 70 35C70 15.67 54.33 0 35 0C15.67 0 0 15.67 0 35C0 54.33 15.67 70 35 70Z" fill="url(#paint0_linear_3031_2182)"/>
<path d="M37.9505 33.4551C38.0647 33.2726 38.1853 33.0933 38.3125 32.9139C38.6483 32.451 39.0428 32.3498 39.421 32.6205C39.7829 32.8813 39.8123 33.3084 39.4927 33.7682C38.107 35.7733 37.618 37.9676 38.0451 40.3739C38.8472 44.883 43.3498 48.0717 47.859 47.299C52.9453 46.4285 56.1047 41.6584 54.9048 36.6602C53.8582 32.2944 49.4305 29.4448 45.0094 30.273C43.7215 30.5142 42.5575 31.0099 41.4881 31.7565C40.9697 32.1184 40.4187 31.9586 40.2655 31.4207C40.1513 31.0229 40.3665 30.7685 40.6697 30.5566C41.1784 30.198 41.7066 29.8883 42.2543 29.6274C40.4774 30.4588 38.9808 31.7956 37.9505 33.4551Z" fill="white"/>
<path d="M23.6189 29.2347C29.5099 29.2347 32.2633 35.406 32.9036 38.4916L36.4252 39.3036C36.7454 41.5772 37.2576 44.5978 36.7454 38.4916C36.2331 32.3854 42.615 29.7761 45.87 29.2347L45.5498 27.9356L43.6288 26.4739H29.0615L24.5793 27.1236L23.6189 28.91C21.1643 29.0183 17.728 29.2347 23.6189 29.2347Z" fill="#F5DE5D"/>
<path d="M20.5891 41.1335C20.2011 41.9128 19.8424 42.63 19.4903 43.3474C19.3664 43.5984 19.2066 43.8136 18.9197 43.8788C18.6328 43.944 18.3818 43.8494 18.1959 43.6245C17.984 43.3669 17.9807 43.08 18.1307 42.7865C18.6393 41.7726 19.1447 40.7586 19.6501 39.7413C19.7381 39.5685 19.8196 39.3925 19.9076 39.2197C20.0478 38.9458 20.2565 38.7763 20.576 38.7664C20.9151 38.7599 21.1336 38.9425 21.2803 39.2294C21.5216 39.7022 21.7596 40.1749 22.0334 40.7194C22.6855 39.4054 23.3018 38.1665 23.918 36.9275C24.019 36.7287 24.1103 36.5233 24.2114 36.3243C24.3516 36.0538 24.5538 35.8711 24.8765 35.8647C25.2124 35.8582 25.4373 36.0244 25.5873 36.3178C26.6535 38.4567 27.7262 40.589 28.7891 42.7279C29.0238 43.2007 28.9097 43.6017 28.5152 43.8071C28.1239 44.0092 27.7294 43.8593 27.4914 43.3833C26.7187 41.8508 25.9557 40.3119 25.1863 38.773C25.108 38.6197 25.0265 38.4665 24.9124 38.2546C24.5668 38.9393 24.2505 39.5587 23.9408 40.1814C23.1518 41.7596 22.3693 43.3376 21.5802 44.9124C21.3488 45.3721 20.9901 45.5286 20.5988 45.3656C20.188 45.1927 20.0315 44.795 20.2337 44.3613C20.4847 43.8201 20.7488 43.2821 21.0357 42.7605C21.1857 42.4866 21.2151 42.2551 21.039 41.9812C20.876 41.74 20.7619 41.4661 20.5891 41.1335Z" fill="#595959"/>
<path d="M22.7546 35.1837C22.7513 36.3838 21.786 37.3327 20.5761 37.323C19.3728 37.3165 18.4303 36.3544 18.4336 35.1413C18.4369 33.9412 19.4021 32.9955 20.6153 33.002C21.8121 33.0085 22.7546 33.9672 22.7546 35.1837Z" fill="#595959"/>
<path d="M30.0516 35.96C30.0288 36.2992 29.895 36.5307 29.6276 36.6448C29.3504 36.7622 29.0635 36.7557 28.8384 36.5242C28.7276 36.4101 28.6395 36.2633 28.5645 36.1198C28.0003 35.0566 27.1916 34.2414 26.1219 33.687C26.0306 33.6381 25.9361 33.5924 25.8513 33.5304C25.5284 33.2924 25.4436 32.9109 25.636 32.575C25.8252 32.2391 26.197 32.1021 26.5589 32.2782C28.1014 33.0152 29.2363 34.1664 29.9766 35.7056C30.019 35.7969 30.032 35.9013 30.0516 35.96Z" fill="#595959"/>
<path d="M30.6756 38.7796C30.669 39.2003 30.3429 39.5036 29.919 39.4841C29.5179 39.4677 29.2309 39.1547 29.2374 38.7503C29.2439 38.3296 29.57 38.0263 29.994 38.0459C30.3918 38.0622 30.6821 38.3752 30.6756 38.7796Z" fill="#595959"/>
<path d="M54.0347 32.0311C52.3686 30.1755 50.0277 28.9428 47.3965 28.7177C47.4519 28.7373 47.5204 28.7537 47.5954 28.7634C50.1711 29.0601 52.4208 30.2504 54.0347 32.0311Z" fill="white"/>
<path d="M44.6017 48.6716C44.5529 48.6618 44.5009 48.652 44.4521 48.6423C44.5042 48.652 44.5529 48.6618 44.6017 48.6716Z" fill="white"/>
<path d="M55.9443 35.1571C55.9671 35.2158 55.9899 35.2777 56.0127 35.3363C55.9932 35.2777 55.9704 35.219 55.9443 35.1571Z" fill="white"/>
<path d="M44.0517 48.5479C44.032 48.5413 44.009 48.538 43.9893 48.5314C44.009 48.538 44.032 48.5446 44.0517 48.5479Z" fill="white"/>
<path d="M54.6904 32.8455C54.7719 32.9562 54.8533 33.0735 54.9282 33.1875C54.8533 33.0702 54.7719 32.9562 54.6904 32.8455Z" fill="white"/>
<path d="M55.5713 34.3029C55.6038 34.3711 55.6363 34.4361 55.6687 34.5042C55.6363 34.4361 55.6038 34.3679 55.5713 34.3029Z" fill="white"/>
<path d="M54.1289 32.1413C54.2427 32.2713 54.3532 32.4079 54.4605 32.5444C54.3565 32.4079 54.246 32.2746 54.1289 32.1413Z" fill="white"/>
<path d="M55.1338 33.5041C55.1794 33.579 55.2218 33.654 55.2674 33.7289C55.2218 33.6572 55.1794 33.579 55.1338 33.5041Z" fill="white"/>
<path d="M47.6792 48.789C47.6205 48.7955 47.5586 48.8021 47.5 48.8086C47.5619 48.8021 47.6205 48.7955 47.6792 48.789Z" fill="white"/>
<path d="M46.5246 48.8542C46.5833 48.8542 46.6452 48.851 46.7039 48.851C46.6191 48.851 46.5311 48.8542 46.4463 48.8542C46.4724 48.8542 46.4985 48.8542 46.5246 48.8542Z" fill="white"/>
<path d="M47.2153 48.8282C47.1338 48.8347 47.0522 48.838 46.9707 48.8445C47.0522 48.8412 47.1338 48.8347 47.2153 48.8282Z" fill="white"/>
<path d="M36.5488 40.2531C36.6304 40.8141 36.7608 41.3555 36.9304 41.8837C36.7771 41.4011 36.6564 40.8956 36.5749 40.3771C36.5684 40.3315 36.5586 40.2923 36.5488 40.2531Z" fill="white"/>
<path d="M36.9804 42.033C36.9642 41.9842 36.9479 41.9355 36.9316 41.8834C36.9446 41.9322 36.9642 41.9809 36.9804 42.033Z" fill="#595959"/>
<path d="M48.0555 48.7401C47.932 48.7596 47.8052 48.7726 47.6816 48.7889C47.8052 48.7726 47.9287 48.7596 48.0555 48.7401Z" fill="#595959"/>
<path d="M54.0352 32.0304C54.0679 32.0664 54.1006 32.1055 54.13 32.1416C54.1006 32.1055 54.0679 32.0696 54.0352 32.0304Z" fill="#595959"/>
<path d="M47.5011 48.8086C47.4064 48.8184 47.3085 48.8249 47.2139 48.8315C47.3118 48.8217 47.4064 48.8151 47.5011 48.8086Z" fill="#595959"/>
<path d="M44.9354 48.7303C44.8247 48.714 44.7139 48.6912 44.6064 48.6716C44.7139 48.6912 44.8247 48.7107 44.9354 48.7303Z" fill="#595959"/>
<path d="M44.4546 48.6421C44.3213 48.6128 44.1847 48.5836 44.0547 48.551C44.1847 48.5803 44.318 48.6128 44.4546 48.6421Z" fill="#595959"/>
<path d="M45.9315 48.8379C45.8402 48.8314 45.7521 48.8249 45.6641 48.8184C45.7554 48.8249 45.8434 48.8314 45.9315 48.8379Z" fill="#595959"/>
<path d="M45.4259 48.7956C45.328 48.7858 45.2333 48.7728 45.1387 48.7597C45.2333 48.7728 45.3312 48.7858 45.4259 48.7956Z" fill="#595959"/>
<path d="M46.4477 48.8542C46.3597 48.8542 46.2716 48.8509 46.1836 48.8477C46.2749 48.8509 46.3597 48.8542 46.4477 48.8542Z" fill="#595959"/>
<path d="M44.2566 28.9395C43.8653 29.0276 43.487 29.1385 43.1152 29.2722C43.4837 29.1385 43.8653 29.0276 44.2566 28.9395Z" fill="#595959"/>
<path d="M42.4184 29.5557C42.3663 29.5786 42.3109 29.6046 42.2588 29.6273C42.3109 29.6013 42.3663 29.5786 42.4184 29.5557Z" fill="#595959"/>
<path d="M43.0341 29.3014C42.9233 29.3437 42.8158 29.3861 42.7051 29.4317C42.8126 29.3861 42.9233 29.3437 43.0341 29.3014Z" fill="#595959"/>
<path d="M37.9514 33.4552C37.9382 33.475 37.9283 33.4916 37.915 33.5114C37.9283 33.4916 37.9415 33.4717 37.9514 33.4552Z" fill="#595959"/>
<path d="M56.5005 37.1949C56.4222 36.7124 56.3049 36.2461 56.1647 35.7929C56.4548 36.732 56.6113 37.7296 56.6113 38.7664C56.6113 43.8104 52.9075 47.9902 48.0723 48.7369C48.2027 48.7173 48.3364 48.6977 48.4668 48.6716C53.7585 47.6772 57.3645 42.5257 56.5005 37.1949Z" fill="#595959"/>
<path d="M37.6574 33.9605C36.9727 35.1995 36.5717 36.5395 36.4511 37.9838C36.4348 38.1893 36.4348 38.3262 36.1642 38.2382C35.3067 37.9513 34.4524 38.0523 33.6178 38.2937C33.0961 33.8203 30.8692 30.7326 26.6404 29.1905C26.0079 28.959 25.3493 28.8123 24.6744 28.7667C24.394 28.7471 24.3451 28.646 24.4853 28.4079C24.9515 27.6059 25.6525 27.244 26.5687 27.244C32.1962 27.244 37.8205 27.244 43.448 27.244C43.6729 27.244 43.8946 27.2668 44.1164 27.319C44.7391 27.4624 45.1825 27.8244 45.5183 28.3558C45.6651 28.5873 45.6357 28.6949 45.4466 28.7438C45.802 28.7047 46.1639 28.6851 46.5323 28.6851C46.8258 28.6851 47.116 28.7014 47.4029 28.7243C47.2301 28.659 47.1388 28.5352 47.0671 28.3101C46.6921 27.1331 45.8998 26.3571 44.7228 25.9626C44.2729 25.8127 43.8131 25.7768 43.3502 25.8094C43.0404 25.829 42.8513 25.7801 42.9296 25.4116C42.9426 25.353 42.9263 25.291 42.9328 25.2323C43.0372 23.977 41.9547 22.8588 40.5918 22.9011C38.7334 22.9598 36.8717 22.9142 35.01 22.9142C33.1352 22.9142 31.2572 22.9142 29.3824 22.9142C27.9707 22.9142 27.0773 23.801 27.0741 25.2029C27.0741 25.7931 27.0741 25.7963 26.4513 25.7963C24.8667 25.7963 23.6734 26.5038 23.0833 27.9515C22.8224 28.5905 22.4834 28.7047 21.916 28.7829C20.3021 29.0047 18.8415 29.6339 17.5308 30.5957C17.1493 30.8761 17.0808 31.2641 17.3221 31.6163C17.5503 31.9521 17.9709 32.027 18.3524 31.7923C18.4535 31.7304 18.548 31.6521 18.6491 31.5869C20.5695 30.3153 22.6822 29.8328 24.9417 30.2338C29.7639 31.0946 32.8744 35.5548 31.9321 40.3673C31.2376 43.9113 29.0368 46.2393 25.5482 47.0968C21.9813 47.9738 18.9197 46.8783 16.6374 43.9798C14.2736 40.9802 14.241 36.9634 16.4255 33.7681C16.7613 33.2758 16.7385 32.8519 16.3603 32.5846C15.9853 32.3173 15.5712 32.4379 15.2289 32.9335C13.5465 35.3821 12.9922 38.0654 13.628 40.9639C14.8018 46.3045 20.0478 49.6464 25.3167 48.6814C29.5096 47.9119 32.9917 44.3091 33.458 40.0934C33.4873 39.8293 33.5949 39.738 33.8297 39.6956C34.4883 39.5782 35.1306 39.4641 35.8185 39.6337C36.2326 39.7347 36.4445 39.8228 36.5456 40.2532C36.4739 39.7673 36.4348 39.2717 36.4348 38.7664C36.438 37.0253 36.8782 35.3886 37.6574 33.9605Z" fill="#595959"/>
<path d="M37.0732 42.291C38.2242 45.4307 40.839 47.7229 43.9919 48.5347C40.7934 47.7065 38.2111 45.3492 37.0732 42.291Z" fill="#595959"/>
<path d="M56.0166 35.3364C56.0686 35.4763 56.1141 35.6193 56.1597 35.7624C56.1141 35.6193 56.0654 35.4763 56.0166 35.3364Z" fill="#595959"/>
<path d="M54.9307 33.1878C54.9991 33.2921 55.0675 33.3995 55.1359 33.5071C55.0675 33.3963 54.9991 33.2921 54.9307 33.1878Z" fill="#595959"/>
<path d="M55.6709 34.505C55.7719 34.7168 55.8631 34.9351 55.9478 35.1566C55.8599 34.9351 55.7686 34.7168 55.6709 34.505Z" fill="#595959"/>
<path d="M55.2656 33.7323C55.3731 33.9181 55.4774 34.107 55.5719 34.3024C55.4741 34.107 55.3731 33.9181 55.2656 33.7323Z" fill="#595959"/>
<path d="M56.6127 38.7664C56.6127 37.7328 56.4563 36.7352 56.1661 35.7929C56.1628 35.7832 56.1596 35.7734 56.1563 35.7604C56.1106 35.6169 56.0617 35.4734 56.0128 35.3332C55.99 35.2713 55.9672 35.2125 55.9444 35.1539C55.8596 34.9321 55.7683 34.7137 55.6672 34.5018C55.6346 34.4333 55.602 34.3648 55.5694 34.2997C55.4749 34.1073 55.3705 33.9149 55.2629 33.7291C55.2205 33.6541 55.1749 33.5759 55.1293 33.5041C55.064 33.3965 54.9956 33.289 54.9238 33.1846C54.8456 33.0672 54.7673 32.9531 54.6858 32.8423C54.6108 32.7411 54.5359 32.6433 54.4609 32.5423C54.3533 32.4053 54.2424 32.2684 54.1283 32.138C54.0957 32.1021 54.0663 32.0629 54.0337 32.0271C52.4198 30.2437 50.1701 29.0537 47.5944 28.7602C47.5194 28.7504 47.4509 28.7373 47.3955 28.7145C47.1086 28.6884 46.8184 28.6754 46.525 28.6754C46.1565 28.6754 45.7946 28.6949 45.4392 28.7341C45.4001 28.7438 45.3545 28.7537 45.3023 28.7602C45.0969 28.783 44.8947 28.8123 44.6959 28.845C44.6796 28.8482 44.6633 28.8515 44.6437 28.8547C44.5133 28.8775 44.3861 28.9069 44.2557 28.9363C43.8644 29.0275 43.483 29.1351 43.1145 29.2688C43.0885 29.2786 43.0591 29.2884 43.033 29.2982C42.9222 29.3406 42.8146 29.383 42.7037 29.4285C42.6092 29.4677 42.5114 29.5101 42.4168 29.5525C42.3646 29.5753 42.3092 29.6014 42.257 29.6242C41.7093 29.885 41.1811 30.1948 40.6725 30.5534C40.3693 30.7653 40.1541 31.0196 40.2682 31.4174C40.4214 31.9587 40.9757 32.1152 41.4908 31.7532C42.5603 31.0067 43.7242 30.511 45.0121 30.2697C49.4333 29.4416 53.8609 32.2912 54.9075 36.657C56.1074 41.6552 52.948 46.4252 47.8617 47.2958C43.3526 48.0685 38.8466 44.8797 38.0478 40.3706C37.6207 37.9611 38.1098 35.7669 39.4955 33.765C39.8117 33.3052 39.7856 32.8781 39.4237 32.6173C39.0455 32.3467 38.651 32.4445 38.3152 32.9107C38.188 33.0868 38.0674 33.2694 37.9533 33.4519C37.9402 33.4715 37.9304 33.4878 37.9174 33.5074C37.8261 33.6541 37.7413 33.8074 37.6566 33.9573C36.8806 35.3854 36.4404 37.0253 36.4404 38.7664C36.4404 39.2718 36.4796 39.7674 36.5513 40.2533C36.5611 40.2923 36.5708 40.3315 36.5774 40.3771C36.6589 40.8955 36.7795 41.3976 36.9328 41.8834C36.9491 41.9323 36.9654 41.9812 36.9817 42.0334C37.011 42.1214 37.0404 42.2063 37.073 42.291C38.2141 45.3493 40.7931 47.7065 43.9916 48.5348C44.0112 48.5413 44.034 48.5445 44.0535 48.551C44.1872 48.5837 44.3209 48.6162 44.4546 48.6423C44.5035 48.6521 44.5557 48.6619 44.6046 48.6716C44.7154 48.6912 44.823 48.714 44.9339 48.7304C45.0023 48.7401 45.0708 48.7499 45.1393 48.7597C45.2338 48.7728 45.3316 48.7857 45.4262 48.7956C45.5044 48.8053 45.586 48.8118 45.6642 48.8184C45.7522 48.8249 45.8435 48.8346 45.9316 48.8379C46.0163 48.8412 46.0978 48.8445 46.1826 48.8477C46.2706 48.851 46.3587 48.8542 46.4467 48.8542C46.5315 48.8542 46.6163 48.8542 46.7043 48.851C46.7923 48.851 46.8803 48.8477 46.9684 48.8445C47.0499 48.8412 47.1314 48.8346 47.2129 48.8282C47.3075 48.8217 47.4053 48.8151 47.4998 48.8053C47.5585 48.7988 47.6205 48.7923 47.6792 48.7857C47.8063 48.7728 47.9302 48.7564 48.0541 48.7368C48.0606 48.7368 48.0639 48.7336 48.0704 48.7336C52.9089 47.9935 56.6127 43.8136 56.6127 38.7664Z" fill="#595959"/>
<path d="M37.9134 33.5106C37.8224 33.6569 37.7346 33.8064 37.6533 33.9593C37.7379 33.8064 37.8224 33.6569 37.9134 33.5106Z" fill="white"/>
<path d="M44.6428 28.858C44.5127 28.884 44.3859 28.91 44.2559 28.9393C44.3827 28.91 44.5127 28.8808 44.6428 28.858Z" fill="white"/>
<path d="M42.7052 29.4319C42.6073 29.471 42.5126 29.5134 42.418 29.5558C42.5126 29.5102 42.6073 29.471 42.7052 29.4319Z" fill="white"/>
<path d="M43.1118 29.2721C43.0857 29.2818 43.0564 29.2916 43.0303 29.3014C43.0596 29.2916 43.0857 29.2818 43.1118 29.2721Z" fill="white"/>
<path d="M45.3026 28.7634C45.358 28.7569 45.4003 28.7504 45.4394 28.7373C45.1885 28.7634 44.941 28.8025 44.6934 28.8481C44.8953 28.8123 45.0973 28.7862 45.3026 28.7634Z" fill="white"/>
<path d="M34.9975 25.8C32.9564 25.8 30.9187 25.7935 28.8776 25.8065C28.5875 25.8097 28.5027 25.7412 28.5059 25.4412C28.519 24.5836 28.7277 24.3586 29.6015 24.3586C33.201 24.3586 36.8005 24.3586 40.4 24.3586C41.2673 24.3586 41.476 24.5868 41.4923 25.4477C41.4988 25.7576 41.3945 25.8097 41.1173 25.8065C39.0763 25.7935 37.0353 25.8 34.9975 25.8Z" fill="#F5DE5D"/>
<path d="M20.6054 35.8813C20.2369 35.8878 19.8847 35.5486 19.8781 35.1768C19.8684 34.8084 20.2108 34.4561 20.5825 34.4464C20.9478 34.4398 21.3032 34.7823 21.313 35.1507C21.3163 35.5192 20.9739 35.8747 20.6054 35.8813Z" fill="#F5DE5D"/>
<path d="M43.6437 41.127C43.2492 41.9225 42.9003 42.6333 42.5449 43.3408C42.2873 43.8527 41.9156 44.019 41.5016 43.8168C41.0744 43.6114 40.9766 43.1941 41.2375 42.6691C41.795 41.5476 42.3623 40.4292 42.9199 39.3044C43.0698 39.0011 43.2655 38.7795 43.6241 38.7696C44.0088 38.7599 44.2175 38.9914 44.3707 39.3109C44.5892 39.7641 44.8239 40.2076 45.0848 40.7226C45.6456 39.6044 46.1738 38.5577 46.6987 37.5079C46.8943 37.1199 47.0834 36.7319 47.2791 36.3439C47.416 36.0701 47.6247 35.894 47.9442 35.8875C48.2833 35.8777 48.5082 36.057 48.6517 36.3471C49.7179 38.486 50.7873 40.6216 51.8469 42.7637C52.0752 43.2267 51.9447 43.631 51.5339 43.8233C51.1492 44.0059 50.7775 43.8592 50.546 43.3995C49.77 41.8671 49.0071 40.3282 48.2376 38.7892C48.1594 38.6328 48.0779 38.4795 47.9931 38.31C47.8203 38.4209 47.7877 38.5904 47.7192 38.7306C46.7183 40.7194 45.7238 42.7115 44.7294 44.7037C44.6772 44.8112 44.6251 44.9189 44.5664 45.0232C44.3381 45.4014 43.9828 45.5253 43.6143 45.3492C43.2231 45.1634 43.0829 44.7917 43.2752 44.3712C43.5198 43.8429 43.761 43.3115 44.0545 42.8093C44.2436 42.4833 44.2403 42.2192 44.0414 41.9127C43.9012 41.6943 43.8034 41.4432 43.6437 41.127Z" fill="#595959"/>
<path d="M43.6393 33.002C44.8459 33.002 45.8014 33.9543 45.8014 35.1608C45.8014 36.3674 44.8525 37.323 43.6426 37.3262C42.436 37.3295 41.4772 36.3739 41.4805 35.1674C41.4837 33.9543 42.4327 33.002 43.6393 33.002Z" fill="#595959"/>
<path d="M35.3865 28.6786C36.2701 28.7048 37.2841 29.2427 38.0047 30.3092C38.3079 30.756 38.2459 31.1995 37.871 31.4473C37.5091 31.6853 37.1243 31.5745 36.7983 31.1375C35.8071 29.8037 34.1834 29.8135 33.1857 31.1538C32.8662 31.5811 32.4652 31.6853 32.1098 31.4375C31.7511 31.1864 31.699 30.7657 31.9728 30.332C32.6054 29.3211 33.7693 28.6819 35.3865 28.6786Z" fill="#595959"/>
<path d="M49.2654 32.1999C49.4839 32.1967 49.6144 32.2716 49.7481 32.3401C51.1634 33.0674 52.233 34.137 52.957 35.5523C53.1951 36.0187 53.0907 36.423 52.6928 36.6252C52.3113 36.8177 51.9102 36.6872 51.6884 36.2469C51.0884 35.0566 50.2014 34.1664 48.998 33.5859C48.636 33.4098 48.5186 33.0902 48.6197 32.7217C48.7143 32.3825 48.9817 32.2195 49.2654 32.1999Z" fill="#595959"/>
<path d="M52.9948 38.0459C53.3992 38.0393 53.7122 38.3296 53.7285 38.7307C53.7448 39.1547 53.4416 39.4808 53.0209 39.4873C52.5969 39.4938 52.2839 39.1807 52.2871 38.7568C52.2937 38.3524 52.5904 38.0524 52.9948 38.0459Z" fill="#595959"/>
<path d="M43.6555 34.4464C44.024 34.4529 44.3664 34.8084 44.3599 35.1768C44.3501 35.5486 43.9979 35.8878 43.6294 35.8813C43.2576 35.8714 42.9152 35.5192 42.925 35.1507C42.9348 34.7789 43.287 34.4398 43.6555 34.4464Z" fill="#F5DE5D"/>
</g>
<defs>
<linearGradient id="paint0_linear_3031_2182" x1="35" y1="0" x2="35" y2="70" gradientUnits="userSpaceOnUse">
<stop stop-color="#A6A6A6"/>
<stop offset="1" stop-color="#A6A6A6" stop-opacity="0"/>
</linearGradient>
<clipPath id="clip0_3031_2182">
<rect width="70" height="70" fill="white"/>
</clipPath>
</defs>
</svg>
