<svg width="70" height="70" viewBox="0 0 70 70" fill="none" xmlns="http://www.w3.org/2000/svg">
<g clip-path="url(#clip0_3031_2162)">
<path opacity="0.15" d="M35 70C54.33 70 70 54.33 70 35C70 15.67 54.33 0 35 0C15.67 0 0 15.67 0 35C0 54.33 15.67 70 35 70Z" fill="url(#paint0_linear_3031_2162)"/>
<path d="M58.0717 39.2563C57.8336 40.0254 57.2629 40.4191 56.5578 40.7488C54.2504 41.8323 51.8025 42.2535 49.2906 42.4702C47.1999 42.6503 45.1122 42.6899 43.0245 42.5343C41.3183 42.4061 39.6152 42.2382 37.9121 42.0643C37.5275 42.0245 37.2376 42.0704 36.9293 42.3482C33.7489 45.1958 30.5472 48.0191 27.373 50.8728C26.906 51.291 26.4848 51.4527 25.8652 51.2482C25.151 51.0102 24.4032 50.882 23.6707 50.6958C22.8496 50.4882 22.6635 49.9968 23.1426 49.304C24.9526 46.67 26.7656 44.039 28.5725 41.4019C28.6793 41.2463 28.8349 41.109 28.8624 40.8862C26.732 40.5931 24.6138 40.3062 22.4925 40.0102C20.5361 39.7385 18.5766 39.4821 16.6293 39.1677C15.7289 39.0243 15.0819 38.2888 14.9323 37.4097C14.7827 36.546 15.1826 35.6608 15.9761 35.1908C16.2203 35.0443 16.2661 34.9161 16.2173 34.6322C15.7747 32.0959 15.3596 29.5534 14.9384 27.011C14.8316 26.3761 15.1307 26.0159 15.7839 26.0068C16.6415 25.9945 17.4992 26.019 18.3538 25.9977C18.8238 25.9854 19.1046 26.1869 19.3091 26.5989C20.3408 28.6927 21.3938 30.7774 22.4254 32.8712C22.5566 33.1397 22.7001 33.2557 23.0206 33.2557C26.0972 33.2405 29.1737 33.2465 32.2503 33.2465C32.3572 33.2465 32.467 33.2465 32.6318 33.2465C32.1527 32.1722 31.6918 31.1436 31.2309 30.115C30.4373 28.3417 29.6407 26.5715 28.8502 24.7981C28.487 23.9832 28.78 23.5223 29.6712 23.5101C30.5136 23.4979 31.356 23.5041 32.1984 23.4796C32.583 23.4674 32.8638 23.6077 33.111 23.8916C35.7603 26.9102 38.4218 29.9197 41.065 32.9413C41.2725 33.1794 41.4801 33.2587 41.7823 33.2557C43.5647 33.2465 45.3503 33.2465 47.1327 33.2679C49.312 33.2923 51.3172 33.9241 53.1882 35.026C54.3114 35.6853 55.4285 36.3536 56.567 36.9855C57.2232 37.3517 57.8184 37.7546 58.0809 38.4994C58.0717 38.7497 58.0717 39.003 58.0717 39.2563Z" fill="#595959"/>
<path d="M19.0946 24.0046C17.7486 24.0046 16.3996 24.0046 15.0536 24.0046C13.7839 24.0046 12.7187 22.9607 12.5935 21.6025C12.4806 20.3938 13.384 19.1821 14.5896 18.9746C15.0292 18.8983 15.4412 18.8404 15.8075 18.526C16.1279 18.2512 16.5613 18.1658 16.9948 18.2055C17.2145 18.2237 17.3366 18.1475 17.4678 17.9643C18.1637 17.0059 19.1282 16.6 20.2911 16.7801C21.4021 16.9541 22.1651 17.6103 22.5558 18.6694C22.6291 18.8708 22.6962 18.944 22.9343 18.9197C24.1155 18.8006 25.2387 19.6369 25.55 20.8334C25.8552 22.0085 25.2478 23.2629 24.1429 23.7604C23.7675 23.9282 23.3891 24.0198 22.9679 24.0138C21.6768 23.9954 20.3857 24.0046 19.0946 24.0046Z" fill="#595959"/>
<path d="M41.2049 51.8709C39.8558 51.8709 38.5068 51.8709 37.1577 51.8709C35.8697 51.8709 34.7557 50.7416 34.6946 49.3743C34.6366 48.1045 35.714 46.8837 36.9868 46.8104C37.2829 46.7921 37.5087 46.7188 37.7407 46.5235C38.1375 46.1877 38.6197 46.0382 39.1447 46.0687C39.3492 46.0809 39.4621 46.0168 39.5873 45.8459C40.274 44.9028 41.2232 44.4816 42.3678 44.6464C43.4971 44.8082 44.2815 45.4674 44.6813 46.5448C44.7698 46.7829 44.8706 46.8165 45.1025 46.8043C46.3417 46.7279 47.4313 47.5765 47.703 48.7943C47.9624 49.9663 47.3337 51.1628 46.2196 51.6542C45.8808 51.8038 45.542 51.8831 45.1666 51.877C43.845 51.8618 42.5265 51.8709 41.2049 51.8709Z" fill="#595959"/>
<path d="M51.1265 29.2482C49.7774 29.2482 48.4314 29.2513 47.0823 29.2482C45.8126 29.2452 44.8024 28.2776 44.6284 26.898C44.488 25.7839 45.3426 24.5295 46.478 24.2762C47.006 24.1602 47.5219 24.0931 47.9644 23.7268C48.2452 23.4948 48.6328 23.4307 48.9991 23.4643C49.2402 23.4857 49.3715 23.4155 49.5149 23.2171C50.1742 22.3228 51.0807 21.8924 52.1795 22.0176C53.3088 22.1458 54.1359 22.7654 54.5541 23.8337C54.6731 24.1419 54.8165 24.1847 55.0973 24.1815C56.2633 24.1633 57.2674 24.9202 57.5666 26.0159C57.8779 27.1605 57.42 28.3111 56.4006 28.9063C56.0099 29.1353 55.5979 29.2634 55.1279 29.2574C53.7941 29.2359 52.4603 29.2482 51.1265 29.2482Z" fill="#595959"/>
<path d="M21.3081 33.9607C21.5553 34.5956 22.0376 34.7207 22.6816 34.7176C30.5897 34.6994 38.4979 34.7146 46.4061 34.6994C48.3198 34.6963 50.1267 35.0687 51.8298 35.9447C52.0801 36.0728 52.2815 36.2621 52.2815 36.494C52.2815 36.6925 51.9672 36.7107 51.7932 36.8084C51.5887 36.9274 51.3537 36.8664 51.1309 36.8695C50.5265 36.8756 49.9222 36.8817 49.3179 36.8664C49.0645 36.8604 48.9302 36.897 48.9577 37.1991C48.9913 37.5592 48.8448 38.0354 49.0279 38.2552C49.2202 38.4871 49.7116 38.307 50.0718 38.3254C50.2671 38.3345 50.4685 38.3009 50.6608 38.3315C51.7382 38.4932 52.7149 38.1605 53.5421 37.544C54.0243 37.1839 54.299 37.3517 54.6775 37.5837C55.2147 37.9133 55.761 38.2246 56.3073 38.539C56.4569 38.6245 56.6156 38.7191 56.6065 38.9083C56.6004 39.1189 56.4233 39.1922 56.2524 39.2746C54.4181 40.1506 52.4952 40.6786 50.4655 40.8831C48.7166 41.057 46.9708 41.2097 45.2158 41.1822C43.531 41.1578 41.8553 40.9716 40.1797 40.816C39.7493 40.7762 39.3129 40.7885 38.8428 40.6602C39.2121 40.3306 39.5601 40.0132 39.9111 39.6988C40.1766 39.4639 40.375 39.2013 40.2346 38.8199C40.1003 38.4566 39.8165 38.3436 39.4441 38.3101C36.8742 38.0812 34.3042 37.834 31.7343 37.5959C31.3803 37.5623 31.1117 37.6966 30.9133 37.9957C30.6355 38.4169 30.3242 38.8167 30.0648 39.2472C29.9152 39.4974 29.7412 39.5462 29.4788 39.5096C27.9801 39.296 26.4815 39.0914 24.9829 38.8839C23.0387 38.6153 21.0975 38.3467 19.1533 38.0782C18.4726 37.9835 17.792 37.8981 17.1114 37.8004C16.7146 37.7424 16.4155 37.5471 16.3666 37.1259C16.3239 36.7443 16.5437 36.494 16.8763 36.3354C17.0137 36.2682 17.151 36.198 17.2914 36.1339C17.6669 35.9599 17.8256 35.673 17.7828 35.2548C17.7371 34.8245 17.5905 34.4064 17.6058 33.9668C17.7401 33.8082 17.9293 33.8142 18.1094 33.8142C19.0037 33.8082 19.898 33.8112 20.7923 33.8142C20.9785 33.8142 21.1585 33.8295 21.3081 33.9607Z" fill="white"/>
<path d="M37.7859 39.6256C37.0443 40.291 36.3606 40.9044 35.6738 41.5149C32.7682 44.097 29.8472 46.667 26.9629 49.2735C26.496 49.6947 26.0778 49.9053 25.4857 49.6306C25.3728 49.5788 25.2446 49.5604 25.1194 49.5421C24.8539 49.5025 24.8325 49.4109 24.9882 49.1911C25.8794 47.9153 26.7584 46.6303 27.6405 45.3454C29.0079 43.3584 30.3753 41.3714 31.7365 39.3783C31.8769 39.1709 32.0112 39.0793 32.2798 39.1068C34.0745 39.2868 35.8753 39.4485 37.7859 39.6256Z" fill="#F5DE5D"/>
<path d="M39.2908 33.2557C38.0059 33.2557 36.727 33.1733 35.4665 33.2832C34.4898 33.3686 34.0594 33.0207 33.6993 32.1417C32.7653 29.8647 31.7153 27.6336 30.7112 25.3872C30.5219 24.9599 30.528 25.0088 30.9798 24.9386C31.752 24.8195 32.2556 25.1095 32.7622 25.6985C34.8225 28.1067 36.9407 30.4691 39.0344 32.8528C39.1291 32.9596 39.2634 33.0513 39.2908 33.2557Z" fill="#F5DE5D"/>
<path d="M21.3069 33.9607C20.0738 33.9638 18.8438 33.9668 17.6107 33.9668C17.4428 33.0329 17.2688 32.0959 17.1101 31.1619C16.9178 30.0326 16.7439 28.8972 16.5424 27.7679C16.4997 27.5206 16.5455 27.4596 16.7988 27.4504C18.0563 27.4138 18.0594 27.4077 18.624 28.5462C19.5183 30.3501 20.4126 32.1538 21.3069 33.9607Z" fill="#F5DE5D"/>
<path d="M19.1154 22.5221C17.7816 22.5221 16.4478 22.5282 15.114 22.519C14.6012 22.516 14.1495 22.1314 14.0579 21.6581C13.9633 21.1637 14.2319 20.6691 14.705 20.4584C14.9491 20.3485 15.2025 20.3669 15.4497 20.4126C15.7946 20.4767 16.0388 20.3607 16.2524 20.0951C16.6492 19.6006 16.7805 19.5701 17.3634 19.7746C17.9006 19.9608 18.215 19.8357 18.4225 19.2922C18.627 18.7549 18.9597 18.3856 19.5366 18.2665C20.4522 18.0773 21.3099 18.8007 21.2458 19.7288C21.2214 20.1013 21.2366 20.4371 21.5876 20.6507C21.9203 20.8552 22.2255 20.727 22.5277 20.5469C22.9611 20.2905 23.4311 20.3271 23.7791 20.6202C24.1331 20.9194 24.2552 21.3712 24.0996 21.7986C23.9378 22.2412 23.5654 22.516 23.071 22.519C21.7524 22.5282 20.4339 22.5221 19.1154 22.5221Z" fill="white"/>
<path d="M41.197 50.4159C39.906 50.4159 38.6149 50.422 37.3238 50.4129C36.8202 50.4097 36.4326 50.19 36.2434 49.7015C36.0877 49.3016 36.164 48.9292 36.4478 48.6117C36.7103 48.3187 37.0522 48.1812 37.4337 48.2759C37.861 48.3828 38.1693 48.2728 38.4134 47.9188C38.6759 47.5401 39.0117 47.4699 39.442 47.6318C40.0525 47.8638 40.3119 47.7295 40.5713 47.0975C40.7819 46.5846 41.1268 46.2245 41.6945 46.1389C42.2653 46.0504 42.7414 46.2275 43.0985 46.6976C43.3213 46.9907 43.3976 47.3235 43.361 47.6867C43.3244 48.0286 43.3885 48.3339 43.7029 48.5293C44.0203 48.7277 44.3072 48.627 44.6032 48.4499C45.0885 48.1599 45.5158 48.1812 45.8882 48.4866C46.2514 48.7827 46.3827 49.2192 46.2362 49.6527C46.0713 50.1441 45.6837 50.4129 45.1099 50.4159C43.8066 50.419 42.5034 50.4159 41.197 50.4159Z" fill="white"/>
<path d="M51.1332 27.7993C49.8146 27.7993 48.4961 27.8054 47.1745 27.7962C46.5854 27.7932 46.1215 27.3414 46.0971 26.7858C46.0696 26.166 46.4572 25.7112 47.0768 25.6441C47.1959 25.6318 47.324 25.6684 47.4461 25.6837C47.8063 25.7325 48.1024 25.6562 48.316 25.3235C48.5449 24.9663 48.8562 24.838 49.2866 24.9938C49.9886 25.2472 50.2083 25.1342 50.5044 24.4351C50.7669 23.8185 51.2736 23.4796 51.9084 23.4979C52.5005 23.5132 53.0011 23.8856 53.2086 24.4565C53.288 24.6732 53.291 24.8961 53.2697 25.119C53.2361 25.4547 53.3368 25.7325 53.6237 25.9188C53.9228 26.1111 54.2036 26.0226 54.4875 25.8547C55.1468 25.4669 55.8335 25.6471 56.1113 26.2699C56.4317 26.9903 55.9037 27.7901 55.0857 27.7962C53.7702 27.8085 52.4517 27.7993 51.1332 27.7993Z" fill="white"/>
<path d="M30.8176 36.8911C30.1094 36.8911 30.1094 36.8911 30.1094 36.1859C30.1094 35.4045 30.1094 35.4045 30.8726 35.4045C31.5961 35.4045 31.5961 35.4045 31.5961 36.1371C31.5961 36.8911 31.5961 36.8911 30.8176 36.8911Z" fill="#595959"/>
<path d="M36.6044 36.8912C35.9053 36.8912 35.9053 36.8912 35.9053 36.186C35.9053 35.4075 35.9053 35.4075 36.7051 35.4075C37.3889 35.4075 37.3889 35.4075 37.3889 36.0975C37.392 36.8912 37.392 36.8912 36.6044 36.8912Z" fill="#595959"/>
<path d="M24.3311 36.1463C24.3311 35.4045 24.3311 35.4045 25.0759 35.4045C25.7842 35.4045 25.7842 35.4045 25.7842 36.1341C25.7842 36.8911 25.7842 36.8911 25.024 36.8911C24.3311 36.8911 24.3311 36.8911 24.3311 36.1463Z" fill="#595959"/>
<path d="M27.9699 35.4045C28.6781 35.4045 28.6781 35.4045 28.6781 36.1005C28.6781 36.8881 28.6781 36.8881 27.8996 36.8881C27.2158 36.8881 27.2158 36.8881 27.2158 36.2195C27.2158 36.192 27.2158 36.1646 27.2158 36.1371C27.2189 35.4045 27.2189 35.4045 27.9699 35.4045Z" fill="#595959"/>
<path d="M33.0283 36.1097C33.0283 35.4075 33.0283 35.4075 33.7305 35.4075C34.4723 35.4075 34.4723 35.4075 34.4723 36.1524C34.4723 36.8911 34.4723 36.8911 33.7274 36.8911C33.0283 36.8911 33.0283 36.8911 33.0283 36.1097Z" fill="#595959"/>
<path d="M40.2826 36.1524C40.2826 36.8911 40.2826 36.8911 39.5438 36.8911C38.8203 36.8911 38.8203 36.8911 38.8203 36.1738C38.8203 35.4075 38.8203 35.4075 39.5835 35.4075C40.2826 35.4044 40.2826 35.4044 40.2826 36.1524Z" fill="#595959"/>
<path d="M43.1709 36.1799C43.1709 36.8911 43.1709 36.8911 42.4443 36.8911C41.7178 36.8911 41.7178 36.8911 41.7178 36.1432C41.7178 35.4045 41.7178 35.4045 42.4596 35.4045C43.1709 35.4045 43.1709 35.4045 43.1709 36.1799Z" fill="#595959"/>
</g>
<defs>
<linearGradient id="paint0_linear_3031_2162" x1="35" y1="0" x2="35" y2="70" gradientUnits="userSpaceOnUse">
<stop stop-color="#A6A6A6"/>
<stop offset="1" stop-color="#A6A6A6" stop-opacity="0"/>
</linearGradient>
<clipPath id="clip0_3031_2162">
<rect width="70" height="70" fill="white"/>
</clipPath>
</defs>
</svg>
