<svg width="70" height="70" viewBox="0 0 70 70" fill="none" xmlns="http://www.w3.org/2000/svg">
<circle opacity="0.15" cx="35" cy="35" r="35" fill="url(#paint0_linear_3026_1968)"/>
<path d="M52.9671 30.8834C51.9137 31.5048 50.7225 31.8686 49.4947 31.9441C48.1482 31.8423 46.8485 31.4148 45.7131 30.7C44.3502 29.8348 42.7823 29.3276 41.1609 29.2279C39.9515 29.2727 38.7665 29.575 37.6885 30.1137V20.7822C38.7417 20.1605 39.9328 19.7964 41.1609 19.7212C42.5074 19.8231 43.8071 20.2505 44.9425 20.9653C46.3054 21.8305 47.8733 22.3377 49.4947 22.4374C50.7041 22.3923 51.8891 22.0906 52.9671 21.5529V30.8834Z" fill="#FFD800" fill-opacity="0.5"/>
<path d="M52.6362 20.7101C52.4373 20.6037 52.1964 20.6154 52.0087 20.7404C51.0105 21.3855 49.8666 21.7705 48.6812 21.8599C47.4964 21.7683 46.3528 21.3836 45.3538 20.7404C44.1545 19.9618 42.7749 19.5053 41.3482 19.4156C40.284 19.456 39.2413 19.728 38.2927 20.2127V20.0054C38.2851 19.3556 37.9342 18.7581 37.3701 18.4354C36.8059 18.1127 36.113 18.1127 35.5488 18.4354C34.9847 18.7581 34.6338 19.3556 34.6262 20.0054V35.3036H32.7929C32.4554 35.3036 32.1818 35.5772 32.1818 35.9147C32.1818 36.2521 32.4554 36.5258 32.7929 36.5258H39.1223C39.6145 36.5072 40.0434 36.8591 40.1208 37.3458C40.1484 37.6042 40.0646 37.8622 39.8908 38.0554C39.7171 38.2485 39.4693 38.359 39.2094 38.359H37.6816C37.3442 38.359 37.0705 38.6327 37.0705 38.9701C37.0705 39.3076 37.3442 39.5812 37.6816 39.5812H39.2094C39.7157 39.5812 40.126 39.9915 40.126 40.4978C40.126 41.0042 39.7157 41.4145 39.2094 41.4145H37.6816C37.3442 41.4145 37.0705 41.6881 37.0705 42.0256C37.0705 42.363 37.3442 42.6367 37.6816 42.6367H39.2094C39.7157 42.6367 40.126 43.047 40.126 43.5533C40.126 44.0596 39.7157 44.4699 39.2094 44.4699H37.6816C37.3442 44.4699 37.0705 44.7436 37.0705 45.081C37.0705 45.4185 37.3442 45.6921 37.6816 45.6921H39.2094C39.7157 45.6921 40.126 46.1024 40.126 46.6087C40.126 47.1151 39.7157 47.5254 39.2094 47.5254H32.5831C31.7724 47.5232 30.9946 47.8457 30.4227 48.4204L29.7374 49.1057L22.0468 41.4144L28.38 35.0811C29.4093 34.0464 30.8097 33.4664 32.269 33.4705H32.7933C33.1308 33.4705 33.4044 33.1968 33.4044 32.8594C33.4044 32.5219 33.1308 32.2483 32.7933 32.2483H32.269C30.4853 32.2434 28.7737 32.9524 27.5161 34.2171L21.1746 40.5583C20.8222 40.2571 20.3704 40.0972 19.9066 40.1092C19.4431 40.1215 19.0003 40.3051 18.6643 40.6246L16.4728 42.8158C16.2379 43.055 16.2398 43.4389 16.4769 43.6759C16.714 43.913 17.0978 43.9149 17.337 43.68L19.5288 41.4885H19.5285C19.7699 41.2569 20.1511 41.2569 20.3925 41.4885L29.6636 50.7596C29.9015 50.9986 29.9018 51.3849 29.6639 51.6239L27.4724 53.8151C27.3562 53.9294 27.2904 54.0854 27.2896 54.2483C27.2888 54.4114 27.3532 54.568 27.4686 54.6832C27.5837 54.7986 27.7403 54.8629 27.9034 54.8621C28.0663 54.8613 28.2223 54.7956 28.3366 54.6793L30.5284 52.4879H30.5281C30.8571 52.1567 31.0473 51.7123 31.0596 51.2458C31.0718 50.779 30.9054 50.3253 30.5944 49.9772L31.2874 49.2846C31.6319 48.9419 32.0976 48.7488 32.5835 48.7474H39.2097C39.7796 48.7477 40.326 48.5204 40.7276 48.1159C41.1292 47.7116 41.3526 47.1637 41.3485 46.5939C41.3442 46.024 41.1128 45.4792 40.7052 45.0809C41.1166 44.679 41.3485 44.1282 41.3485 43.5531C41.3485 42.9781 41.1166 42.4273 40.7052 42.0254C41.1164 41.6236 41.3485 41.073 41.3485 40.4983C41.3485 39.9232 41.1169 39.3724 40.7058 38.9705C40.7366 38.94 40.7666 38.9091 40.7958 38.877C41.2015 38.4268 41.3982 37.8266 41.3376 37.2237C41.2678 36.6879 41.0037 36.1963 40.5953 35.8422C40.1869 35.4884 39.6628 35.2966 39.1227 35.3035H38.2931V31.3696C39.2198 30.81 40.2679 30.4824 41.3485 30.4147C42.5333 30.5064 43.6769 30.8911 44.676 31.5343C45.8753 32.3129 47.2549 32.7693 48.6816 32.8591C50.1084 32.7693 51.488 32.3129 52.6872 31.5343C52.8572 31.4208 52.9592 31.2301 52.9592 31.0258V21.2484C52.9592 21.023 52.8351 20.816 52.6365 20.7096L52.6362 20.7101ZM35.8483 35.3036V20.0054C35.851 19.8425 35.9201 19.6876 36.0393 19.5763C36.1585 19.4652 36.3178 19.4071 36.4807 19.4156C36.8061 19.4159 37.0702 19.6799 37.0705 20.0054V35.3036H35.8483ZM51.7367 30.6825C50.8097 31.2418 49.7615 31.5691 48.6812 31.6371C47.4964 31.5454 46.3528 31.1607 45.3537 30.5175C44.1545 29.7389 42.7749 29.2824 41.3481 29.1927C40.2839 29.2331 39.2412 29.5051 38.2927 29.9898V21.5924C39.2194 21.0329 40.2675 20.7053 41.3481 20.6376C42.5329 20.7292 43.6766 21.1139 44.6756 21.7572C45.8749 22.5357 47.2545 22.9922 48.6812 23.0819C49.7454 23.0413 50.7881 22.7698 51.7367 22.2859V30.6825Z" fill="#595959"/>
<defs>
<linearGradient id="paint0_linear_3026_1968" x1="35" y1="0" x2="35" y2="70" gradientUnits="userSpaceOnUse">
<stop stop-color="#A6A6A6"/>
<stop offset="1" stop-color="#A6A6A6" stop-opacity="0"/>
</linearGradient>
</defs>
</svg>
